<svg width="32" height="32" viewBox="0 0 32 32" fill="none" xmlns="http://www.w3.org/2000/svg">
  <rect width="32" height="32" rx="6" fill="url(#paint0_linear_5008_2670)"/>
  <path d="M8 8C8 6.89543 8.89543 6 10 6H22C23.1046 6 24 6.89543 24 8V24C24 25.1046 23.1046 26 22 26H10C8.89543 26 8 25.1046 8 24V8Z" fill="url(#paint1_linear_5008_2670)"/>
  <path d="M12 12C12 11.4477 12.4477 11 13 11H19C19.5523 11 20 11.4477 20 12V20C20 20.5523 19.5523 21 19 21H13C12.4477 21 12 20.5523 12 20V12Z" fill="url(#paint2_linear_5008_2670)"/>
  <defs>
    <linearGradient id="paint0_linear_5008_2670" x1="0" y1="0" x2="32" y2="32" gradientUnits="userSpaceOnUse">
      <stop stop-color="#0194FF"/>
      <stop offset="1" stop-color="#1FF8D1"/>
    </linearGradient>
    <linearGradient id="paint1_linear_5008_2670" x1="8" y1="6" x2="24" y2="26" gradientUnits="userSpaceOnUse">
      <stop stop-color="#0194FF"/>
      <stop offset="1" stop-color="#1FF8D1"/>
    </linearGradient>
    <linearGradient id="paint2_linear_5008_2670" x1="12" y1="11" x2="20" y2="21" gradientUnits="userSpaceOnUse">
      <stop stop-color="#1FF8EB"/>
      <stop offset="1" stop-color="#01A4FF"/>
    </linearGradient>
  </defs>
</svg> 