<svg width="16" height="13" viewBox="0 0 16 13" fill="none" xmlns="http://www.w3.org/2000/svg">
<path d="M12.6667 12V8M10.6667 10H14.6667M14.6667 4.66667H1.33334M14.6667 6V3.46667C14.6667 2.71993 14.6667 2.34656 14.5213 2.06135C14.3935 1.81046 14.1895 1.60649 13.9387 1.47866C13.6534 1.33333 13.2801 1.33333 12.5333 1.33333H3.46667C2.71993 1.33333 2.34656 1.33333 2.06135 1.47866C1.81047 1.60649 1.60649 1.81046 1.47866 2.06134C1.33334 2.34656 1.33334 2.71993 1.33334 3.46667V8.53333C1.33334 9.28007 1.33334 9.65344 1.47866 9.93865C1.60649 10.1895 1.81047 10.3935 2.06135 10.5213C2.34656 10.6667 2.71993 10.6667 3.46667 10.6667H8" stroke="#00FFF0" stroke-width="1.33333" stroke-linecap="round" stroke-linejoin="round"/>
</svg>
